<?xml version="1.0" encoding="UTF-8"?>
<svg id="Capa_1" data-name="Capa 1" xmlns="http://www.w3.org/2000/svg" viewBox="0 0 2000 2000">
  <defs>
    <style>
      .cls-1 {
        fill: #ed6f49;
      }

      .cls-2 {
        fill: #ffeb3c;
      }

      .cls-3 {
        fill: #f4f5dc;
      }

      .cls-4 {
        fill: #2764ad;
      }

      .cls-5 {
        fill: #2d7e34;
      }
    </style>
  </defs>
  <path class="cls-1" d="M1292.425,665.727l-91.737,217.111c-4.519,10.695-15.831,16.847-27.265,14.827l-535.133-94.536c-27.168-4.8-27.523-43.658-.447-48.952l626.87-122.575c19.57-3.827,35.473,15.757,27.712,34.125Z"/>
  <path class="cls-3" d="M639.014,689.954l351.173-71.531c15.481-3.153,22.723-21.083,13.776-34.104l-243.888-354.914c-10.752-15.647-34.936-11.302-39.568,7.11l-107.284,426.445c-3.962,15.749,9.879,30.235,25.792,26.994Z"/>
  <path class="cls-2" d="M1073.282,607.298l202.91-35.711c12.817-2.256,20.905-15.061,17.434-27.604l-74.963-270.919c-5.588-20.195-33.543-21.95-41.613-2.612l-127.947,306.629c-6.713,16.088,7.01,33.237,24.178,30.216Z"/>
  <path class="cls-5" d="M609.743,842.563l493.121,89.94c17.076,3.115,24.029,23.821,12.293,36.611L389.432,1759.968c-15.57,16.967-43.456,1.721-37.576-20.544l232.604-880.795c2.941-11.135,13.953-18.133,25.283-16.067Z"/>
  <path class="cls-4" d="M1190.094,970.61l-297.121,310.773c-9.583,10.023-7.648,26.299,4.017,33.797l717.841,461.35c19.21,12.346,42.218-9.056,31.293-29.108l-420.72-772.123c-7.146-13.115-24.988-15.485-35.31-4.689Z"/>
</svg>